<?xml version="1.0" encoding="UTF-8"?>
<svg id="Layer_2" data-name="Layer 2" xmlns="http://www.w3.org/2000/svg" viewBox="0 0 724.82 3.2">
  <g id="Layer_2-2" data-name="Layer 2">
    <g>
      <g>
        <rect x="177.1" width="15.63" height="3.2" style="stroke-width: 0px;"/>
        <rect x="199.88" width="15.63" height="3.2" style="stroke-width: 0px;"/>
        <rect x="222.85" width="15.63" height="3.2" style="stroke-width: 0px;"/>
        <rect x="108.96" width="60.31" height="3.2" style="stroke-width: 0px;"/>
        <rect x="245.76" width="61.28" height="3.2" style="stroke-width: 0px;"/>
        <rect x="169.27" width="7.83" height="3.2" style="fill: #fff; stroke-width: 0px;"/>
        <rect width="108.96" height="3.2" style="fill: #fff; stroke-width: 0px;"/>
        <rect x="307.04" width="108.96" height="3.2" style="fill: #fff; stroke-width: 0px;"/>
        <rect x="192.15" width="7.83" height="3.2" style="fill: #fff; stroke-width: 0px;"/>
        <rect x="215.33" width="7.83" height="3.2" style="fill: #fff; stroke-width: 0px;"/>
        <rect x="238.24" width="7.83" height="3.2" style="fill: #fff; stroke-width: 0px;"/>
      </g>
      <g>
        <rect x="485.93" width="15.63" height="3.2" style="stroke-width: 0px;"/>
        <rect x="508.71" width="15.63" height="3.2" style="stroke-width: 0px;"/>
        <rect x="531.68" width="15.63" height="3.2" style="stroke-width: 0px;"/>
        <rect x="417.78" width="60.31" height="3.2" style="stroke-width: 0px;"/>
        <rect x="554.58" width="61.28" height="3.2" style="stroke-width: 0px;"/>
        <rect x="478.09" width="7.83" height="3.2" style="fill: #fff; stroke-width: 0px;"/>
        <rect x="308.82" width="108.96" height="3.2" style="fill: #fff; stroke-width: 0px;"/>
        <rect x="615.86" width="108.96" height="3.2" style="fill: #fff; stroke-width: 0px;"/>
        <rect x="500.97" width="7.83" height="3.2" style="fill: #fff; stroke-width: 0px;"/>
        <rect x="524.15" width="7.83" height="3.2" style="fill: #fff; stroke-width: 0px;"/>
        <rect x="547.06" width="7.83" height="3.2" style="fill: #fff; stroke-width: 0px;"/>
      </g>
    </g>
  </g>
</svg>