<?xml version="1.0" encoding="UTF-8"?>
<svg id="Layer_2" data-name="Layer 2" xmlns="http://www.w3.org/2000/svg" viewBox="0 0 723.82 3.2">
  <g id="Layer_2-2" data-name="Layer 2">
    <g>
      <g>
        <rect x="153.71" width="15.63" height="3.2" style="stroke-width: 0px;"/>
        <rect x="176.65" width="15.63" height="3.2" style="stroke-width: 0px;"/>
        <rect x="199.59" width="15.63" height="3.2" style="stroke-width: 0px;"/>
        <rect x="222.92" width="15.63" height="3.2" style="stroke-width: 0px;"/>
        <rect x="245.66" width="15.63" height="3.2" style="stroke-width: 0px;"/>
        <rect width="153.71" height="3.2" style="fill: #fff; stroke-width: 0px;"/>
        <rect x="169.34" width="7.83" height="3.2" style="fill: #fff; stroke-width: 0px;"/>
        <rect x="192.21" width="7.83" height="3.2" style="fill: #fff; stroke-width: 0px;"/>
        <rect x="215.05" width="7.83" height="3.2" style="fill: #fff; stroke-width: 0px;"/>
        <rect x="237.82" width="7.83" height="3.2" style="fill: #fff; stroke-width: 0px;"/>
        <rect x="261.29" width="153.71" height="3.2" style="fill: #fff; stroke-width: 0px;"/>
      </g>
      <g>
        <rect x="462.54" width="15.63" height="3.2" style="stroke-width: 0px;"/>
        <rect x="485.47" width="15.63" height="3.2" style="stroke-width: 0px;"/>
        <rect x="508.41" width="15.63" height="3.2" style="stroke-width: 0px;"/>
        <rect x="531.74" width="15.63" height="3.2" style="stroke-width: 0px;"/>
        <rect x="554.48" width="15.63" height="3.2" style="stroke-width: 0px;"/>
        <rect x="308.82" width="153.71" height="3.2" style="fill: #fff; stroke-width: 0px;"/>
        <rect x="478.17" width="7.83" height="3.2" style="fill: #fff; stroke-width: 0px;"/>
        <rect x="501.04" width="7.83" height="3.2" style="fill: #fff; stroke-width: 0px;"/>
        <rect x="523.87" width="7.83" height="3.2" style="fill: #fff; stroke-width: 0px;"/>
        <rect x="546.65" width="7.83" height="3.2" style="fill: #fff; stroke-width: 0px;"/>
        <rect x="570.11" width="153.71" height="3.2" style="fill: #fff; stroke-width: 0px;"/>
      </g>
    </g>
  </g>
</svg>