<?xml version="1.0" encoding="UTF-8"?>
<svg id="Layer_2" data-name="Layer 2" xmlns="http://www.w3.org/2000/svg" viewBox="0 0 1662.67 3.2">
  <g id="Layer_2-2" data-name="Layer 2">
    <g>
      <g>
        <rect x="1016.72" y="0" width="45.94" height="3.2" style="fill: #0019ff; stroke-width: 0px;"/>
        <rect x="831.99" y="0" width="184.73" height="3.2" style="fill: lime; stroke-width: 0px;"/>
        <rect x="1062.94" y="0" width="184.73" height="3.2" style="fill: lime; stroke-width: 0px;"/>
      </g>
      <g>
        <rect x="1401.38" y="0" width="15.63" height="3.2" style="fill: #0019ff; stroke-width: 0px;"/>
        <rect x="1424.32" y="0" width="15.63" height="3.2" style="fill: #0019ff; stroke-width: 0px;"/>
        <rect x="1447.25" y="0" width="15.63" height="3.2" style="fill: #0019ff; stroke-width: 0px;"/>
        <rect x="1470.58" y="0" width="15.63" height="3.2" style="fill: #0019ff; stroke-width: 0px;"/>
        <rect x="1493.32" y="0" width="15.63" height="3.2" style="fill: #0019ff; stroke-width: 0px;"/>
        <rect x="1247.67" y="0" width="153.71" height="3.2" style="fill: lime; stroke-width: 0px;"/>
        <rect x="1417.01" y="0" width="7.83" height="3.2" style="fill: lime; stroke-width: 0px;"/>
        <rect x="1439.88" y="0" width="7.83" height="3.2" style="fill: lime; stroke-width: 0px;"/>
        <rect x="1462.72" y="0" width="7.83" height="3.2" style="fill: lime; stroke-width: 0px;"/>
        <rect x="1485.49" y="0" width="7.83" height="3.2" style="fill: lime; stroke-width: 0px;"/>
        <rect x="1508.95" y="0" width="153.71" height="3.2" style="fill: lime; stroke-width: 0px;"/>
      </g>
      <g>
        <rect x="177.1" y="0" width="15.63" height="3.2" style="fill: #0019ff; stroke-width: 0px;"/>
        <rect x="199.88" y="0" width="15.63" height="3.2" style="fill: #0019ff; stroke-width: 0px;"/>
        <rect x="222.85" y="0" width="15.63" height="3.2" style="fill: #0019ff; stroke-width: 0px;"/>
        <rect x="108.96" y="0" width="60.31" height="3.2" style="fill: #0019ff; stroke-width: 0px;"/>
        <rect x="245.76" y="0" width="61.28" height="3.2" style="fill: #0019ff; stroke-width: 0px;"/>
        <rect x="169.27" y="0" width="7.83" height="3.2" style="fill: lime; stroke-width: 0px;"/>
        <rect y="0" width="108.96" height="3.2" style="fill: lime; stroke-width: 0px;"/>
        <rect x="307.04" y="0" width="108.96" height="3.2" style="fill: lime; stroke-width: 0px;"/>
        <rect x="192.15" y="0" width="7.83" height="3.2" style="fill: lime; stroke-width: 0px;"/>
        <rect x="215.33" y="0" width="7.83" height="3.2" style="fill: lime; stroke-width: 0px;"/>
        <rect x="238.24" y="0" width="7.83" height="3.2" style="fill: lime; stroke-width: 0px;"/>
      </g>
      <g>
        <rect x="524.96" y="0" width="45.94" height="3.2" style="fill: #0019ff; stroke-width: 0px;"/>
        <rect x="600.73" y="0" width="45.94" height="3.2" style="fill: #0019ff; stroke-width: 0px;"/>
        <rect x="677.09" y="0" width="45.94" height="3.2" style="fill: #0019ff; stroke-width: 0px;"/>
        <rect x="570.84" y="0" width="29.88" height="3.2" style="fill: lime; stroke-width: 0px;"/>
        <rect x="416" width="108.96" height="3.2" style="fill: lime; stroke-width: 0px;"/>
        <rect x="723.03" y="0" width="108.96" height="3.2" style="fill: lime; stroke-width: 0px;"/>
        <rect x="646.94" y="0" width="29.88" height="3.2" style="fill: lime; stroke-width: 0px;"/>
      </g>
    </g>
  </g>
</svg>