<?xml version="1.0" encoding="UTF-8"?>
<svg id="Layer_2" data-name="Layer 2" xmlns="http://www.w3.org/2000/svg" viewBox="0 0 6650.66 136.64">
  <g id="Layer_2-2" data-name="Layer 2">
    <g>
      <g>
        <g>
          <rect x="1016.72" y="0" width="45.94" height="136.64" style="fill: #0019ff; stroke-width: 0px;"/>
          <rect x="831.99" y="0" width="184.73" height="136.64" style="fill: lime; stroke-width: 0px;"/>
          <rect x="1062.94" y="0" width="184.73" height="136.64" style="fill: lime; stroke-width: 0px;"/>
        </g>
        <g>
          <rect x="1401.38" y="0" width="15.63" height="136.64" style="fill: #0019ff; stroke-width: 0px;"/>
          <rect x="1424.32" y="0" width="15.63" height="136.64" style="fill: #0019ff; stroke-width: 0px;"/>
          <rect x="1447.25" y="0" width="15.63" height="136.64" style="fill: #0019ff; stroke-width: 0px;"/>
          <rect x="1470.58" y="0" width="15.63" height="136.64" style="fill: #0019ff; stroke-width: 0px;"/>
          <rect x="1493.32" y="0" width="15.63" height="136.64" style="fill: #0019ff; stroke-width: 0px;"/>
          <rect x="1247.67" y="0" width="153.71" height="136.64" style="fill: lime; stroke-width: 0px;"/>
          <rect x="1417.01" y="0" width="7.83" height="136.64" style="fill: lime; stroke-width: 0px;"/>
          <rect x="1439.88" y="0" width="7.83" height="136.64" style="fill: lime; stroke-width: 0px;"/>
          <rect x="1462.72" y="0" width="7.83" height="136.64" style="fill: lime; stroke-width: 0px;"/>
          <rect x="1485.49" y="0" width="7.83" height="136.64" style="fill: lime; stroke-width: 0px;"/>
          <rect x="1508.95" y="0" width="153.71" height="136.64" style="fill: lime; stroke-width: 0px;"/>
        </g>
        <g>
          <rect x="177.1" y="0" width="15.63" height="136.64" style="fill: #0019ff; stroke-width: 0px;"/>
          <rect x="199.88" y="0" width="15.63" height="136.64" style="fill: #0019ff; stroke-width: 0px;"/>
          <rect x="222.85" y="0" width="15.63" height="136.64" style="fill: #0019ff; stroke-width: 0px;"/>
          <rect x="108.96" y="0" width="60.31" height="136.64" style="fill: #0019ff; stroke-width: 0px;"/>
          <rect x="245.76" y="0" width="61.28" height="136.64" style="fill: #0019ff; stroke-width: 0px;"/>
          <rect x="169.27" y="0" width="7.83" height="136.64" style="fill: lime; stroke-width: 0px;"/>
          <rect y="0" width="108.96" height="136.64" style="fill: lime; stroke-width: 0px;"/>
          <rect x="307.04" y="0" width="108.96" height="136.64" style="fill: lime; stroke-width: 0px;"/>
          <rect x="192.15" y="0" width="7.83" height="136.64" style="fill: lime; stroke-width: 0px;"/>
          <rect x="215.33" y="0" width="7.83" height="136.64" style="fill: lime; stroke-width: 0px;"/>
          <rect x="238.24" y="0" width="7.83" height="136.64" style="fill: lime; stroke-width: 0px;"/>
        </g>
        <g>
          <rect x="524.96" y="0" width="45.94" height="136.64" style="fill: #0019ff; stroke-width: 0px;"/>
          <rect x="600.73" y="0" width="45.94" height="136.64" style="fill: #0019ff; stroke-width: 0px;"/>
          <rect x="677.09" y="0" width="45.94" height="136.64" style="fill: #0019ff; stroke-width: 0px;"/>
          <rect x="570.84" y="0" width="29.88" height="136.64" style="fill: lime; stroke-width: 0px;"/>
          <rect x="416" width="108.96" height="136.64" style="fill: lime; stroke-width: 0px;"/>
          <rect x="723.03" y="0" width="108.96" height="136.64" style="fill: lime; stroke-width: 0px;"/>
          <rect x="646.94" y="0" width="29.88" height="136.64" style="fill: lime; stroke-width: 0px;"/>
        </g>
      </g>
      <g>
        <g>
          <rect x="2679.39" y="0" width="45.94" height="136.64" style="fill: #0019ff; stroke-width: 0px;"/>
          <rect x="2494.66" y="0" width="184.73" height="136.64" style="fill: lime; stroke-width: 0px;"/>
          <rect x="2725.6" y="0" width="184.73" height="136.64" style="fill: lime; stroke-width: 0px;"/>
        </g>
        <g>
          <rect x="3064.04" y="0" width="15.63" height="136.64" style="fill: #0019ff; stroke-width: 0px;"/>
          <rect x="3086.98" y="0" width="15.63" height="136.64" style="fill: #0019ff; stroke-width: 0px;"/>
          <rect x="3109.92" y="0" width="15.63" height="136.64" style="fill: #0019ff; stroke-width: 0px;"/>
          <rect x="3133.25" y="0" width="15.63" height="136.64" style="fill: #0019ff; stroke-width: 0px;"/>
          <rect x="3155.99" y="0" width="15.63" height="136.64" style="fill: #0019ff; stroke-width: 0px;"/>
          <rect x="2910.33" y="0" width="153.71" height="136.64" style="fill: lime; stroke-width: 0px;"/>
          <rect x="3079.67" y="0" width="7.83" height="136.64" style="fill: lime; stroke-width: 0px;"/>
          <rect x="3102.55" y="0" width="7.83" height="136.64" style="fill: lime; stroke-width: 0px;"/>
          <rect x="3125.38" y="0" width="7.83" height="136.64" style="fill: lime; stroke-width: 0px;"/>
          <rect x="3148.16" y="0" width="7.83" height="136.64" style="fill: lime; stroke-width: 0px;"/>
          <rect x="3171.62" y="0" width="153.71" height="136.64" style="fill: lime; stroke-width: 0px;"/>
        </g>
        <g>
          <rect x="1839.77" y="0" width="15.63" height="136.64" style="fill: #0019ff; stroke-width: 0px;"/>
          <rect x="1862.55" y="0" width="15.63" height="136.64" style="fill: #0019ff; stroke-width: 0px;"/>
          <rect x="1885.52" y="0" width="15.63" height="136.64" style="fill: #0019ff; stroke-width: 0px;"/>
          <rect x="1771.63" y="0" width="60.31" height="136.64" style="fill: #0019ff; stroke-width: 0px;"/>
          <rect x="1908.43" y="0" width="61.28" height="136.64" style="fill: #0019ff; stroke-width: 0px;"/>
          <rect x="1831.94" y="0" width="7.83" height="136.64" style="fill: lime; stroke-width: 0px;"/>
          <rect x="1662.67" y="0" width="108.96" height="136.64" style="fill: lime; stroke-width: 0px;"/>
          <rect x="1969.7" y="0" width="108.96" height="136.64" style="fill: lime; stroke-width: 0px;"/>
          <rect x="1854.81" y="0" width="7.83" height="136.64" style="fill: lime; stroke-width: 0px;"/>
          <rect x="1878" y="0" width="7.83" height="136.64" style="fill: lime; stroke-width: 0px;"/>
          <rect x="1900.9" y="0" width="7.83" height="136.64" style="fill: lime; stroke-width: 0px;"/>
        </g>
        <g>
          <rect x="2187.62" y="0" width="45.94" height="136.64" style="fill: #0019ff; stroke-width: 0px;"/>
          <rect x="2263.39" y="0" width="45.94" height="136.64" style="fill: #0019ff; stroke-width: 0px;"/>
          <rect x="2339.76" y="0" width="45.94" height="136.64" style="fill: #0019ff; stroke-width: 0px;"/>
          <rect x="2233.51" y="0" width="29.88" height="136.64" style="fill: lime; stroke-width: 0px;"/>
          <rect x="2078.66" y="0" width="108.96" height="136.64" style="fill: lime; stroke-width: 0px;"/>
          <rect x="2385.7" y="0" width="108.96" height="136.64" style="fill: lime; stroke-width: 0px;"/>
          <rect x="2309.61" y="0" width="29.88" height="136.64" style="fill: lime; stroke-width: 0px;"/>
        </g>
      </g>
      <g>
        <g>
          <rect x="4342.05" y="0" width="45.94" height="136.64" style="fill: #0019ff; stroke-width: 0px;"/>
          <rect x="4157.33" y="0" width="184.73" height="136.64" style="fill: lime; stroke-width: 0px;"/>
          <rect x="4388.27" y="0" width="184.73" height="136.64" style="fill: lime; stroke-width: 0px;"/>
        </g>
        <g>
          <rect x="4726.71" y="0" width="15.63" height="136.64" style="fill: #0019ff; stroke-width: 0px;"/>
          <rect x="4749.65" y="0" width="15.63" height="136.64" style="fill: #0019ff; stroke-width: 0px;"/>
          <rect x="4772.58" y="0" width="15.63" height="136.64" style="fill: #0019ff; stroke-width: 0px;"/>
          <rect x="4795.92" y="0" width="15.63" height="136.64" style="fill: #0019ff; stroke-width: 0px;"/>
          <rect x="4818.66" y="0" width="15.63" height="136.64" style="fill: #0019ff; stroke-width: 0px;"/>
          <rect x="4573" y="0" width="153.71" height="136.64" style="fill: lime; stroke-width: 0px;"/>
          <rect x="4742.34" y="0" width="7.83" height="136.64" style="fill: lime; stroke-width: 0px;"/>
          <rect x="4765.21" y="0" width="7.83" height="136.64" style="fill: lime; stroke-width: 0px;"/>
          <rect x="4788.05" y="0" width="7.83" height="136.64" style="fill: lime; stroke-width: 0px;"/>
          <rect x="4810.82" y="0" width="7.83" height="136.64" style="fill: lime; stroke-width: 0px;"/>
          <rect x="4834.28" y="0" width="153.71" height="136.64" style="fill: lime; stroke-width: 0px;"/>
        </g>
        <g>
          <rect x="3502.43" y="0" width="15.63" height="136.64" style="fill: #0019ff; stroke-width: 0px;"/>
          <rect x="3525.22" y="0" width="15.63" height="136.64" style="fill: #0019ff; stroke-width: 0px;"/>
          <rect x="3548.19" y="0" width="15.63" height="136.64" style="fill: #0019ff; stroke-width: 0px;"/>
          <rect x="3434.29" y="0" width="60.31" height="136.64" style="fill: #0019ff; stroke-width: 0px;"/>
          <rect x="3571.09" y="0" width="61.28" height="136.64" style="fill: #0019ff; stroke-width: 0px;"/>
          <rect x="3494.6" y="0" width="7.83" height="136.64" style="fill: lime; stroke-width: 0px;"/>
          <rect x="3325.33" y="0" width="108.96" height="136.64" style="fill: lime; stroke-width: 0px;"/>
          <rect x="3632.37" y="0" width="108.96" height="136.64" style="fill: lime; stroke-width: 0px;"/>
          <rect x="3517.48" y="0" width="7.83" height="136.64" style="fill: lime; stroke-width: 0px;"/>
          <rect x="3540.66" y="0" width="7.83" height="136.64" style="fill: lime; stroke-width: 0px;"/>
          <rect x="3563.57" y="0" width="7.83" height="136.64" style="fill: lime; stroke-width: 0px;"/>
        </g>
        <g>
          <rect x="3850.29" y="0" width="45.94" height="136.64" style="fill: #0019ff; stroke-width: 0px;"/>
          <rect x="3926.06" y="0" width="45.94" height="136.64" style="fill: #0019ff; stroke-width: 0px;"/>
          <rect x="4002.43" y="0" width="45.94" height="136.64" style="fill: #0019ff; stroke-width: 0px;"/>
          <rect x="3896.18" y="0" width="29.88" height="136.64" style="fill: lime; stroke-width: 0px;"/>
          <rect x="3741.33" y="0" width="108.96" height="136.64" style="fill: lime; stroke-width: 0px;"/>
          <rect x="4048.37" y="0" width="108.96" height="136.64" style="fill: lime; stroke-width: 0px;"/>
          <rect x="3972.27" y="0" width="29.88" height="136.64" style="fill: lime; stroke-width: 0px;"/>
        </g>
      </g>
      <g>
        <g>
          <rect x="6004.72" y="0" width="45.94" height="136.64" style="fill: #0019ff; stroke-width: 0px;"/>
          <rect x="5819.99" y="0" width="184.73" height="136.64" style="fill: lime; stroke-width: 0px;"/>
          <rect x="6050.93" y="0" width="184.73" height="136.64" style="fill: lime; stroke-width: 0px;"/>
        </g>
        <g>
          <rect x="6389.38" y="0" width="15.63" height="136.64" style="fill: #0019ff; stroke-width: 0px;"/>
          <rect x="6412.31" y="0" width="15.63" height="136.64" style="fill: #0019ff; stroke-width: 0px;"/>
          <rect x="6435.25" y="0" width="15.63" height="136.64" style="fill: #0019ff; stroke-width: 0px;"/>
          <rect x="6458.58" y="0" width="15.63" height="136.64" style="fill: #0019ff; stroke-width: 0px;"/>
          <rect x="6481.32" y="0" width="15.63" height="136.64" style="fill: #0019ff; stroke-width: 0px;"/>
          <rect x="6235.66" y="0" width="153.71" height="136.64" style="fill: lime; stroke-width: 0px;"/>
          <rect x="6405.01" y="0" width="7.83" height="136.64" style="fill: lime; stroke-width: 0px;"/>
          <rect x="6427.88" y="0" width="7.83" height="136.64" style="fill: lime; stroke-width: 0px;"/>
          <rect x="6450.71" y="0" width="7.83" height="136.64" style="fill: lime; stroke-width: 0px;"/>
          <rect x="6473.49" y="0" width="7.83" height="136.64" style="fill: lime; stroke-width: 0px;"/>
          <rect x="6496.95" y="0" width="153.71" height="136.64" style="fill: lime; stroke-width: 0px;"/>
        </g>
        <g>
          <rect x="5165.1" y="0" width="15.63" height="136.64" style="fill: #0019ff; stroke-width: 0px;"/>
          <rect x="5187.88" y="0" width="15.63" height="136.64" style="fill: #0019ff; stroke-width: 0px;"/>
          <rect x="5210.85" y="0" width="15.63" height="136.64" style="fill: #0019ff; stroke-width: 0px;"/>
          <rect x="5096.96" y="0" width="60.31" height="136.64" style="fill: #0019ff; stroke-width: 0px;"/>
          <rect x="5233.76" y="0" width="61.28" height="136.64" style="fill: #0019ff; stroke-width: 0px;"/>
          <rect x="5157.27" y="0" width="7.83" height="136.64" style="fill: lime; stroke-width: 0px;"/>
          <rect x="4988" y="0" width="108.96" height="136.64" style="fill: lime; stroke-width: 0px;"/>
          <rect x="5295.04" y="0" width="108.96" height="136.64" style="fill: lime; stroke-width: 0px;"/>
          <rect x="5180.14" y="0" width="7.83" height="136.64" style="fill: lime; stroke-width: 0px;"/>
          <rect x="5203.33" y="0" width="7.83" height="136.64" style="fill: lime; stroke-width: 0px;"/>
          <rect x="5226.24" y="0" width="7.83" height="136.64" style="fill: lime; stroke-width: 0px;"/>
        </g>
        <g>
          <rect x="5512.95" y="0" width="45.94" height="136.64" style="fill: #0019ff; stroke-width: 0px;"/>
          <rect x="5588.72" y="0" width="45.94" height="136.64" style="fill: #0019ff; stroke-width: 0px;"/>
          <rect x="5665.09" y="0" width="45.94" height="136.64" style="fill: #0019ff; stroke-width: 0px;"/>
          <rect x="5558.84" y="0" width="29.88" height="136.64" style="fill: lime; stroke-width: 0px;"/>
          <rect x="5403.99" y="0" width="108.96" height="136.64" style="fill: lime; stroke-width: 0px;"/>
          <rect x="5711.03" y="0" width="108.96" height="136.64" style="fill: lime; stroke-width: 0px;"/>
          <rect x="5634.94" y="0" width="29.88" height="136.64" style="fill: lime; stroke-width: 0px;"/>
        </g>
      </g>
    </g>
  </g>
</svg>